<svg xmlns="http://www.w3.org/2000/svg" version="1.1" xmlns:xlink="http://www.w3.org/1999/xlink" width="133.92" height="133.92"><svg id="SvgjsSvg1003" data-name="Layer 2" xmlns="http://www.w3.org/2000/svg" viewBox="0 0 133.92 133.92">
  <g id="SvgjsG1002" data-name="Layer 1">
    <circle cx="66.96" cy="66.96" r="66.96" style="fill: #06ff3b; stroke-width: 0px;"></circle>
    <path d="m52.83,98.37c-4.76-1.53-8.98-3.71-12.68-6.53l6.95-11.64c6.39,4.45,13.08,6.67,20.1,6.67,3.32,0,5.87-.5,7.65-1.5,1.78-1,2.68-2.41,2.68-4.23s-.99-3.24-2.96-4.46c-1.97-1.22-5.43-2.52-10.38-3.9-7.32-1.94-12.71-4.55-16.15-7.84-3.44-3.29-5.16-7.56-5.16-12.82,0-3.69.95-6.96,2.86-9.81,1.91-2.85,4.69-5.07,8.36-6.67,3.66-1.6,7.97-2.39,12.91-2.39s9.17.7,13.43,2.11c4.26,1.41,8.14,3.4,11.64,5.96l-7.04,11.27c-2.25-1.75-4.98-3.16-8.17-4.23-3.19-1.06-6.29-1.6-9.3-1.6-2.69,0-4.82.47-6.39,1.41-1.57.94-2.35,2.19-2.35,3.76s.88,3.02,2.63,4.18c1.75,1.16,5.04,2.43,9.86,3.8,7.7,2.13,13.36,4.88,17,8.26,3.63,3.38,5.45,7.67,5.45,12.86,0,3.88-1.08,7.31-3.24,10.28-2.16,2.97-5.23,5.27-9.2,6.9-3.98,1.63-8.56,2.44-13.76,2.44s-9.99-.77-14.74-2.3Z" style="fill: #1d427e; stroke-width: 0px;"></path>
  </g>
</svg><style>@media (prefers-color-scheme: light) { :root { filter: none; } }
@media (prefers-color-scheme: dark) { :root { filter: none; } }
</style></svg>